<mxfile host="app.diagrams.net" modified="2023-05-05T01:20:23.241Z" agent="Mozilla/5.0 (Macintosh; Intel Mac OS X 10_15_7) AppleWebKit/605.1.15 (KHTML, like Gecko) Version/16.4 Safari/605.1.15" version="21.2.9" etag="qMeRl2ocGTeEgBAZ0OrS" type="github">
  <diagram name="第 1 页" id="TquOfBSUUZ81E32Kx-ow">
    <mxGraphModel>
      <root>
        <mxCell id="0" />
        <mxCell id="1" parent="0" />
      </root>
    </mxGraphModel>
  </diagram>
</mxfile>
